<svg id="Layer_1" enable-background="new 0 0 512 512" height="512" viewBox="0 0 512 512" width="512" xmlns="http://www.w3.org/2000/svg"><g><path d="m507.606 371.054c-20.238-20.237-44.142-35.156-71.047-44.341-5.069-1.732-10.676-.627-14.71 2.895-1.757 1.534-66.433 63.026-161.724 37.638-1.328-.379-2.712-.576-4.118-.576s-2.807.197-4.134.576c-95.291 25.388-159.966-36.104-161.724-37.638-4.034-3.521-9.641-4.626-14.71-2.895-26.905 9.185-50.809 24.104-71.047 44.341-2.811 2.814-4.392 6.637-4.392 10.615s1.581 7.793 4.394 10.606c35.019 35.019 81.579 54.305 131.103 54.305 44.68 0 86.947-15.7 120.504-44.487 33.557 28.787 75.824 44.487 120.504 44.487 49.524 0 96.084-19.286 131.103-54.305 2.813-2.813 4.394-6.628 4.394-10.606-.002-3.978-1.583-7.801-4.396-10.615z" fill="#ff4380"/><path d="m507.606 371.054c-20.238-20.237-44.142-35.156-71.047-44.341-5.069-1.732-10.676-.627-14.71 2.895-1.757 1.534-66.433 63.026-161.724 37.638-1.328-.379-2.712-.576-4.118-.576l-.007 35.424c33.557 28.787 75.824 44.487 120.504 44.487 49.524 0 96.084-19.286 131.103-54.305 2.813-2.813 4.394-6.628 4.394-10.606-.001-3.979-1.582-7.802-4.395-10.616z" fill="#f7006a"/><path d="m494.299 231.516c-32.021-8.511-66.018-9.182-98.339-1.934-5.23 1.173-9.437 5.047-11.035 10.164-6.974 22.321-24.148 62.376-65.992 94.484-18.925 14.522-40.081 25.225-62.933 31.861-22.852-6.636-44.007-17.339-62.933-31.861-41.844-32.108-59.018-72.164-65.992-94.484-1.598-5.116-5.805-8.991-11.035-10.164-32.322-7.248-66.318-6.578-98.339 1.934-6.6 1.576-11.507 7.517-11.507 14.599 0 1.312.172 2.618.512 3.885 15.32 57.141 52.727 100.349 96.31 125.508 42.687 24.65 97.244 35.435 152.985 21.63 55.741 13.804 110.298 3.02 152.985-21.63 43.583-25.159 80.989-68.367 96.31-125.508.34-1.267.512-2.573.512-3.885-.002-7.082-4.909-13.023-11.509-14.599z" fill="#ff759d"/><path d="m494.299 231.516c-32.021-8.511-66.018-9.182-98.339-1.934-5.23 1.173-9.437 5.047-11.035 10.164-6.974 22.321-24.148 62.376-65.992 94.484-18.925 14.522-40.081 25.225-62.933 31.861v31.047c55.741 13.804 110.298 3.02 152.985-21.63 43.583-25.159 80.989-68.367 96.31-125.508.34-1.267.512-2.573.512-3.885-.001-7.082-4.908-13.023-11.508-14.599z" fill="#ff4380"/><path d="m416.093 125.596c-2.145-8.001-10.366-12.748-18.37-10.605-35.94 9.626-69.117 28.348-95.942 54.142-3.863 3.714-5.451 9.207-4.166 14.409 4.834 19.57 13.675 67.827-9.293 123.278-8 19.314-18.847 37.002-32.321 52.769-13.474-15.767-24.322-33.455-32.321-52.769-22.969-55.451-14.127-103.708-9.293-123.278 1.285-5.202-.303-10.695-4.166-14.409-26.826-25.794-60.002-44.516-95.942-54.142-8.004-2.142-16.225 2.604-18.37 10.605-16.372 61.078-4.825 121.063 22.064 167.631 26.888 46.571 73.056 86.558 134.137 102.931 1.291.346 2.595.512 3.884.512s2.609-.166 3.9-.512c61.08-16.372 107.249-56.36 134.137-102.931 26.887-46.569 38.434-106.553 22.062-167.631z" fill="#ff4380"/><path d="m416.093 125.596c-2.145-8.001-10.366-12.748-18.37-10.605-35.94 9.626-69.117 28.348-95.942 54.142-3.863 3.714-5.451 9.207-4.166 14.409 4.834 19.57 13.675 67.827-9.293 123.278-8 19.314-18.847 37.002-32.321 52.769l-.008 37.081c1.289 0 2.609-.166 3.9-.512 61.08-16.372 107.249-56.36 134.137-102.931 26.888-46.569 38.435-106.553 22.063-167.631z" fill="#f7006a"/><path d="m256 396.669c-3.978 0-7.802-1.581-10.615-4.394-39.259-39.258-66.78-95.975-66.78-161.231 0-65.227 27.491-121.943 66.78-161.231 2.813-2.813 6.628-4.394 10.606-4.394s7.802 1.581 10.615 4.394c39.268 39.267 66.78 95.975 66.78 161.231 0 65.271-27.533 121.985-66.78 161.231-2.813 2.814-6.628 4.394-10.606 4.394z" fill="#ff759d"/><path d="m256 396.669-.008-331.25c3.978 0 7.802 1.581 10.615 4.394 39.268 39.267 66.78 95.975 66.78 161.231 0 65.271-27.533 121.985-66.78 161.231-2.814 2.814-6.629 4.394-10.607 4.394z" fill="#ff4380"/><path d="m256 381.669h.01z"/></g></svg>