<svg id="Capa_1" enable-background="new 0 0 512 512" height="512" viewBox="0 0 512 512" width="512" xmlns="http://www.w3.org/2000/svg"><g><path d="m510.452 227.841c-.374-3.417-3.023-6.143-6.429-6.613l-41.956-5.798c-1.816-9.273-4.263-18.431-7.304-27.343l33.417-25.985c2.714-2.11 3.646-5.795 2.261-8.941-3.805-8.645-8.09-17.11-12.738-25.16-4.65-8.054-9.838-15.999-15.421-23.612-2.032-2.772-5.689-3.807-8.874-2.513l-39.259 15.966c-6.203-7.092-12.899-13.789-19.991-19.99l15.966-39.259c1.295-3.185.26-6.842-2.513-8.875-7.619-5.585-15.563-10.774-23.612-15.42-8.051-4.648-16.517-8.934-25.161-12.738-3.146-1.384-6.832-.453-8.942 2.261l-25.984 33.417c-8.914-3.042-18.071-5.488-27.343-7.304l-5.799-41.956c-.471-3.405-3.196-6.055-6.613-6.429-9.386-1.028-18.86-1.549-28.157-1.549s-18.771.521-28.159 1.548c-3.417.374-6.143 3.023-6.613 6.429l-5.798 41.956c-9.272 1.816-18.43 4.262-27.343 7.304l-25.985-33.417c-2.11-2.714-5.795-3.646-8.941-2.261-8.643 3.804-17.107 8.089-25.16 12.738-8.051 4.648-15.995 9.836-23.612 15.421-2.772 2.033-3.808 5.689-2.513 8.874l15.966 39.259c-7.092 6.203-13.788 12.899-19.99 19.991l-39.259-15.966c-3.186-1.295-6.841-.26-8.874 2.513-5.583 7.613-10.771 15.558-15.421 23.612-4.648 8.051-8.934 16.516-12.738 25.161-1.385 3.146-.453 6.832 2.261 8.942l33.417 25.984c-3.042 8.914-5.488 18.071-7.304 27.343l-41.956 5.798c-3.405.47-6.054 3.196-6.429 6.613-1.028 9.386-1.549 18.86-1.549 28.158s.521 18.772 1.549 28.159c.375 3.417 3.023 6.143 6.429 6.613l41.956 5.798c1.816 9.272 4.263 18.431 7.304 27.342l-33.418 25.986c-2.713 2.11-3.646 5.795-2.261 8.941 3.803 8.643 8.089 17.108 12.738 25.162 4.65 8.053 9.838 15.997 15.42 23.611 2.033 2.772 5.691 3.808 8.875 2.513l39.259-15.966c6.202 7.092 12.897 13.787 19.991 19.991l-15.966 39.259c-1.295 3.185-.26 6.842 2.513 8.875 7.615 5.583 15.559 10.771 23.612 15.42 8.05 4.648 16.516 8.934 25.161 12.739 3.146 1.385 6.832.453 8.942-2.261l25.984-33.417c8.912 3.041 18.071 5.488 27.343 7.304l5.799 41.956c.471 3.405 3.196 6.054 6.613 6.429 9.385 1.025 18.858 1.546 28.157 1.546 9.298 0 18.772-.521 28.159-1.549 3.417-.375 6.143-3.023 6.613-6.429l5.798-41.956c9.273-1.816 18.431-4.263 27.343-7.304l25.985 33.417c2.11 2.713 5.793 3.645 8.941 2.261 8.645-3.804 17.11-8.09 25.161-12.738 8.053-4.649 15.998-9.837 23.612-15.42 2.772-2.033 3.808-5.689 2.513-8.874l-15.966-39.259c7.091-6.202 13.788-12.898 19.99-19.991l39.259 15.966c3.186 1.295 6.842.26 8.875-2.513 5.582-7.614 10.77-15.558 15.42-23.612 4.648-8.051 8.934-16.517 12.738-25.161 1.385-3.146.453-6.832-2.261-8.942l-33.417-25.984c3.042-8.914 5.488-18.071 7.304-27.343l41.956-5.799c3.405-.471 6.055-3.196 6.429-6.613 1.027-9.386 1.548-18.86 1.548-28.157s-.521-18.771-1.548-28.159zm-14.346 48.882-41.471 5.732c-3.246.448-5.825 2.952-6.369 6.183-2.025 12.021-5.194 23.882-9.418 35.255-1.14 3.069-.158 6.522 2.427 8.532l33.025 25.68c-2.953 6.301-6.167 12.468-9.587 18.394-3.422 5.927-7.156 11.794-11.136 17.5l-38.796-15.778c-3.032-1.233-6.511-.359-8.599 2.16-7.761 9.359-16.441 18.04-25.798 25.799-2.519 2.088-3.393 5.568-2.16 8.599l15.776 38.798c-5.707 3.98-11.573 7.713-17.5 11.135-5.925 3.421-12.091 6.635-18.393 9.588l-25.681-33.025c-2.009-2.584-5.461-3.567-8.532-2.427-11.37 4.224-23.231 7.393-35.255 9.418-3.231.545-5.735 3.124-6.183 6.369l-5.731 41.471c-6.934.594-13.881.894-20.725.894s-13.791-.3-20.723-.894l-5.732-41.471c-.448-3.246-2.952-5.824-6.183-6.369-12.022-2.025-23.884-5.194-35.255-9.418-3.067-1.14-6.522-.158-8.532 2.427l-25.68 33.025c-6.302-2.953-12.468-6.167-18.394-9.588-5.927-3.422-11.793-7.155-17.5-11.136l15.778-38.796c1.233-3.031.358-6.511-2.16-8.599-9.36-7.761-18.04-16.441-25.799-25.799-2.088-2.518-5.568-3.395-8.599-2.16l-38.797 15.778c-3.98-5.706-7.714-11.573-11.136-17.5-3.421-5.927-6.635-12.093-9.587-18.394l33.025-25.681c2.584-2.009 3.566-5.463 2.427-8.532-4.224-11.372-7.393-23.233-9.418-35.255-.545-3.231-3.124-5.735-6.369-6.183l-41.471-5.731c-.595-6.933-.895-13.88-.895-20.724s.3-13.791.894-20.724l41.471-5.731c3.246-.448 5.825-2.952 6.369-6.183 2.025-12.02 5.193-23.882 9.418-35.255 1.14-3.069.158-6.522-2.427-8.532l-33.025-25.681c2.953-6.301 6.167-12.468 9.588-18.394 3.422-5.927 7.156-11.794 11.136-17.5l38.797 15.778c3.032 1.233 6.511.358 8.599-2.16 7.76-9.358 16.439-18.039 25.798-25.799 2.519-2.088 3.393-5.568 2.16-8.599l-15.778-38.797c5.708-3.981 11.574-7.714 17.5-11.136 5.927-3.421 12.093-6.635 18.394-9.587l25.681 33.025c2.009 2.584 5.46 3.567 8.532 2.427 11.373-4.225 23.234-7.394 35.255-9.418 3.231-.544 5.735-3.124 6.183-6.369l5.731-41.471c6.933-.594 13.881-.894 20.724-.894s13.79.3 20.723.894l5.732 41.471c.448 3.246 2.952 5.825 6.183 6.369 12.02 2.025 23.882 5.193 35.255 9.418 3.065 1.139 6.521.158 8.532-2.427l25.68-33.025c6.301 2.953 12.468 6.167 18.394 9.587 5.924 3.42 11.791 7.154 17.5 11.136l-15.777 38.797c-1.233 3.031-.358 6.511 2.16 8.599 9.358 7.759 18.038 16.439 25.799 25.798 2.089 2.519 5.57 3.394 8.599 2.16l38.797-15.777c3.979 5.706 7.713 11.573 11.136 17.5 3.421 5.926 6.635 12.092 9.587 18.394l-33.025 25.681c-2.584 2.009-3.566 5.463-2.427 8.532 4.224 11.37 7.393 23.231 9.418 35.255.545 3.231 3.124 5.735 6.369 6.183l41.471 5.731c.594 6.933.894 13.881.894 20.724s-.3 13.79-.894 20.723z"/><path d="m233.5 256c0 12.407 10.093 22.5 22.5 22.5s22.5-10.093 22.5-22.5-10.093-22.5-22.5-22.5-22.5 10.093-22.5 22.5zm30 0c0 4.136-3.364 7.5-7.5 7.5s-7.5-3.364-7.5-7.5 3.364-7.5 7.5-7.5 7.5 3.364 7.5 7.5z"/><path d="m203.5 256c0 28.949 23.551 52.5 52.5 52.5s52.5-23.551 52.5-52.5-23.551-52.5-52.5-52.5-52.5 23.551-52.5 52.5zm90 0c0 20.678-16.822 37.5-37.5 37.5s-37.5-16.822-37.5-37.5 16.822-37.5 37.5-37.5 37.5 16.822 37.5 37.5z"/><path d="m386.702 312.88c6.453-2.583 11.277-7.89 13.236-14.56 4.022-13.691 6.062-27.93 6.062-42.32 0-34.343-11.295-66.658-32.664-93.453-20.735-26-49.86-44.594-82.007-52.356-6.77-1.635-13.787-.104-19.251 4.199-5.451 4.291-8.577 10.731-8.577 17.668v50.445c0 3.567 2.512 6.641 6.008 7.35 31.285 6.351 53.992 34.17 53.992 66.147 0 7.274-1.169 14.466-3.476 21.376-1.128 3.38.278 7.088 3.364 8.87l43.701 25.231c3.482 2.011 7.344 3.029 11.231 3.029 2.825 0 5.666-.539 8.381-1.626zm-50.714-36.68c1.669-6.6 2.512-13.37 2.512-20.2 0-37.004-24.888-69.453-60-79.39v-44.552c0-2.31 1.041-4.454 2.855-5.883 1.83-1.44 4.181-1.952 6.452-1.403 60.759 14.671 103.193 68.634 103.193 131.228 0 12.958-1.835 25.775-5.453 38.093-.654 2.227-2.265 3.999-4.419 4.861-2.149.862-4.533.69-6.539-.467z"/><path d="m239.923 114.39c-5.466-4.303-12.481-5.834-19.251-4.199-32.148 7.763-61.272 26.356-82.008 52.356-21.369 26.795-32.664 59.11-32.664 93.453 0 14.39 2.04 28.629 6.062 42.321 1.959 6.67 6.784 11.977 13.236 14.56 2.716 1.087 5.555 1.625 8.382 1.625 3.886 0 7.749-1.018 11.231-3.029l43.701-25.231c3.086-1.782 4.492-5.489 3.364-8.869-2.307-6.912-3.476-14.104-3.476-21.377 0-31.977 22.707-59.796 53.992-66.147 3.496-.709 6.008-3.783 6.008-7.35v-50.445c0-6.937-3.126-13.377-8.577-17.668zm-6.423 62.22c-35.112 9.937-60 42.386-60 79.39 0 6.829.843 13.599 2.512 20.2l-38.602 22.287c-2.006 1.159-4.389 1.329-6.539.467-2.154-.862-3.765-2.634-4.419-4.861-3.617-12.318-5.452-25.135-5.452-38.093 0-62.594 42.434-116.557 103.193-131.228.597-.145 1.2-.215 1.797-.215 1.674 0 3.307.557 4.655 1.619 1.815 1.429 2.855 3.573 2.855 5.883z"/><path d="m359.553 324.447-43.677-25.217c-3.085-1.781-6.998-1.146-9.362 1.52-12.819 14.458-31.231 22.75-50.514 22.75s-37.695-8.292-50.514-22.751c-2.363-2.667-6.277-3.302-9.362-1.52l-43.677 25.217c-6.021 3.476-10.044 9.418-11.037 16.304-.988 6.852 1.177 13.65 5.938 18.652 28.602 30.049 67.189 46.598 108.652 46.598s80.049-16.548 108.651-46.597c4.762-5.002 6.926-11.801 5.938-18.652-.993-6.886-5.015-12.828-11.036-16.304zm-5.767 24.614c-25.742 27.045-60.47 41.939-97.786 41.939s-72.044-14.895-97.787-41.94c-1.571-1.65-2.284-3.898-1.956-6.168.332-2.304 1.677-4.292 3.69-5.455l38.58-22.274c15.345 14.899 35.965 23.337 57.473 23.337s42.128-8.438 57.473-23.337l38.58 22.274c2.013 1.162 3.358 3.15 3.69 5.455.327 2.27-.386 4.519-1.957 6.169z"/><path d="m256 76c-58.629 0-113.757 28.702-147.468 76.778-2.378 3.392-1.557 8.069 1.834 10.447 3.391 2.377 8.068 1.557 10.447-1.834 30.906-44.077 81.443-70.391 135.187-70.391 90.981 0 165 74.019 165 165s-74.019 165-165 165-165-74.019-165-165c0-24.367 5.197-47.842 15.446-69.771 1.754-3.753.134-8.216-3.619-9.97-3.754-1.755-8.217-.134-9.97 3.619-11.186 23.932-16.857 49.543-16.857 76.122 0 99.252 80.748 180 180 180s180-80.748 180-180-80.748-180-180-180z"/></g></svg>